<svg width="15" height="15" viewBox="0 0 15 15" fill="none" xmlns="http://www.w3.org/2000/svg">
<g id="icon/communication/call_24px">
<path id="icon/communication/call_24px_2" d="M12.0136 9.5426L10.4261 9.36135C10.0449 9.3176 9.66987 9.44885 9.40112 9.7176L8.25112 10.8676C6.48237 9.9676 5.03237 8.52385 4.13237 6.74885L5.28862 5.5926C5.55737 5.32385 5.68862 4.94885 5.64487 4.5676L5.46362 2.9926C5.38862 2.36135 4.85737 1.88635 4.21987 1.88635H3.13862C2.43237 1.88635 1.84487 2.47385 1.88862 3.1801C2.21987 8.5176 6.48862 12.7801 11.8199 13.1114C12.5261 13.1551 13.1136 12.5676 13.1136 11.8614V10.7801C13.1199 10.1489 12.6449 9.6176 12.0136 9.5426Z" fill="white"/>
</g>
</svg>
