<svg width="15" height="15" viewBox="0 0 15 15" fill="none" xmlns="http://www.w3.org/2000/svg">
<g id="icon/communication/email_24px">
<path id="icon/communication/email_24px_2" fill-rule="evenodd" clip-rule="evenodd" d="M2.5 2.5H12.5C13.1875 2.5 13.75 3.0625 13.75 3.75V11.25C13.75 11.9375 13.1875 12.5 12.5 12.5H2.5C1.8125 12.5 1.25 11.9375 1.25 11.25L1.25625 3.75C1.25625 3.0625 1.8125 2.5 2.5 2.5ZM7.83125 7.91875L12.25 5.15625C12.4062 5.05625 12.5 4.8875 12.5 4.70625C12.5 4.2875 12.0437 4.0375 11.6875 4.25625L7.5 6.875L3.3125 4.25625C2.95625 4.0375 2.5 4.2875 2.5 4.70625C2.5 4.8875 2.59375 5.05625 2.75 5.15625L7.16875 7.91875C7.36875 8.04375 7.63125 8.04375 7.83125 7.91875Z" fill="white"/>
</g>
</svg>
