<svg width="14" height="14" viewBox="0 0 14 14" fill="none" xmlns="http://www.w3.org/2000/svg">
<path id="Vector" d="M7.00147 3.41058C5.01508 3.41058 3.41285 5.01317 3.41285 7C3.41285 8.98683 5.01508 10.5894 7.00147 10.5894C8.98786 10.5894 10.5901 8.98683 10.5901 7C10.5901 5.01317 8.98786 3.41058 7.00147 3.41058ZM7.00147 9.33359C5.71781 9.33359 4.6684 8.28707 4.6684 7C4.6684 5.71293 5.71469 4.66641 7.00147 4.66641C8.28825 4.66641 9.33454 5.71293 9.33454 7C9.33454 8.28707 8.28513 9.33359 7.00147 9.33359ZM11.5739 3.26375C11.5739 3.72922 11.1991 4.10097 10.7369 4.10097C10.2715 4.10097 9.89985 3.7261 9.89985 3.26375C9.89985 2.80141 10.2746 2.42653 10.7369 2.42653C11.1991 2.42653 11.5739 2.80141 11.5739 3.26375ZM13.9507 4.11347C13.8976 2.99197 13.6415 1.99855 12.8201 1.18007C12.0018 0.361598 11.0086 0.105433 9.88736 0.0492023C8.73176 -0.0164008 5.26806 -0.0164008 4.11246 0.0492023C2.99433 0.102309 2.00114 0.358474 1.17972 1.17695C0.358302 1.99543 0.105318 2.98884 0.0490997 4.11034C-0.0164887 5.26621 -0.0164887 8.73067 0.0490997 9.88653C0.102195 11.008 0.358302 12.0015 1.17972 12.8199C2.00114 13.6384 2.99121 13.8946 4.11246 13.9508C5.26806 14.0164 8.73176 14.0164 9.88736 13.9508C11.0086 13.8977 12.0018 13.6415 12.8201 12.8199C13.6384 12.0015 13.8945 11.008 13.9507 9.88653C14.0163 8.73067 14.0163 5.26933 13.9507 4.11347ZM12.4578 11.1267C12.2142 11.739 11.7426 12.2108 11.1273 12.4575C10.2059 12.8231 8.01965 12.7387 7.00147 12.7387C5.98329 12.7387 3.79388 12.8199 2.87565 12.4575C2.26349 12.2139 1.79188 11.7422 1.54514 11.1267C1.17972 10.2052 1.26405 8.01841 1.26405 7C1.26405 5.98159 1.18284 3.7917 1.54514 2.87326C1.78875 2.26096 2.26037 1.78924 2.87565 1.54245C3.79701 1.17695 5.98329 1.2613 7.00147 1.2613C8.01965 1.2613 10.2091 1.18007 11.1273 1.54245C11.7395 1.78612 12.2111 2.25784 12.4578 2.87326C12.8232 3.79482 12.7389 5.98159 12.7389 7C12.7389 8.01841 12.8232 10.2083 12.4578 11.1267Z" fill="white"/>
</svg>
