<svg width="22" height="22" viewBox="0 0 22 22" fill="none" xmlns="http://www.w3.org/2000/svg">
<g id="icon/communication/location_on_24px">
<path id="icon/communication/location_on_24px_2" fill-rule="evenodd" clip-rule="evenodd" d="M4.58325 8.49296C4.58325 4.94546 7.45242 2.07629 10.9999 2.07629C14.5474 2.07629 17.4166 4.94546 17.4166 8.49296C17.4166 12.3155 13.3649 17.5863 11.7058 19.5938C11.3391 20.0338 10.6699 20.0338 10.3033 19.5938C8.63492 17.5863 4.58325 12.3155 4.58325 8.49296ZM8.70825 8.49296C8.70825 9.75796 9.73492 10.7846 10.9999 10.7846C12.2649 10.7846 13.2916 9.75796 13.2916 8.49296C13.2916 7.22796 12.2649 6.20129 10.9999 6.20129C9.73492 6.20129 8.70825 7.22796 8.70825 8.49296Z" fill="#0089A0"/>
</g>
</svg>
