<svg width="14" height="14" viewBox="0 0 14 14" fill="none" xmlns="http://www.w3.org/2000/svg">
<g id="icon/communication/location_on_24px">
<path id="icon/communication/location_on_24px_2" fill-rule="evenodd" clip-rule="evenodd" d="M2.9165 5.40459C2.9165 3.14709 4.74234 1.32126 6.99984 1.32126C9.25734 1.32126 11.0832 3.14709 11.0832 5.40459C11.0832 7.83709 8.50484 11.1913 7.449 12.4688C7.21567 12.7488 6.78984 12.7488 6.5565 12.4688C5.49484 11.1913 2.9165 7.83709 2.9165 5.40459ZM5.5415 5.40459C5.5415 6.20959 6.19484 6.86293 6.99984 6.86293C7.80484 6.86293 8.45817 6.20959 8.45817 5.40459C8.45817 4.59959 7.80484 3.94626 6.99984 3.94626C6.19484 3.94626 5.5415 4.59959 5.5415 5.40459Z" fill="#003142"/>
</g>
</svg>
