<svg width="14" height="14" viewBox="0 0 14 14" fill="none" xmlns="http://www.w3.org/2000/svg">
<g id="icon/communication/call_24px">
<path id="icon/communication/call_24px_2" d="M11.2129 8.90642L9.73122 8.73726C9.37538 8.69642 9.02538 8.81892 8.77455 9.06976L7.70122 10.1431C6.05038 9.30309 4.69705 7.95559 3.85705 6.29892L4.93622 5.21976C5.18705 4.96892 5.30955 4.61892 5.26872 4.26309L5.09955 2.79309C5.02955 2.20392 4.53372 1.76059 3.93872 1.76059H2.92955C2.27039 1.76059 1.72205 2.30892 1.76289 2.96809C2.07205 7.94976 6.05622 11.9281 11.0321 12.2373C11.6912 12.2781 12.2396 11.7298 12.2396 11.0706V10.0614C12.2454 9.47226 11.8021 8.97642 11.2129 8.90642Z" fill="#003142"/>
</g>
</svg>
