<svg width="14" height="14" viewBox="0 0 14 14" fill="none" xmlns="http://www.w3.org/2000/svg">
<path id="Vector" d="M13.0005 0H0.997394C0.447394 0 0.000518799 0.453125 0.000518799 1.00938V12.9906C0.000518799 13.5469 0.447394 14 0.997394 14H13.0005C13.5505 14 14.0005 13.5469 14.0005 12.9906V1.00938C14.0005 0.453125 13.5505 0 13.0005 0ZM4.23177 12H2.15677V5.31875H4.23489V12H4.23177ZM3.19427 4.40625C2.52864 4.40625 1.99114 3.86562 1.99114 3.20312C1.99114 2.54063 2.52864 2 3.19427 2C3.85677 2 4.39739 2.54063 4.39739 3.20312C4.39739 3.86875 3.85989 4.40625 3.19427 4.40625ZM12.0099 12H9.93489V8.75C9.93489 7.975 9.91927 6.97813 8.85677 6.97813C7.77552 6.97813 7.60989 7.82188 7.60989 8.69375V12H5.53489V5.31875H7.52552V6.23125H7.55364C7.83177 5.70625 8.50989 5.15312 9.51927 5.15312C11.6193 5.15312 12.0099 6.5375 12.0099 8.3375V12Z" fill="white"/>
</svg>
